# xmcd
#
# Track frame offsets: 
#        150
#        14415
#        25702
#        36345
#        45625
#        58677
#        72445
#        84690
#        97935
#        112212
#        122558
#        135550
#        149535
#        165808
#        178677
#        193843
#        208250
#        219933
#        231614
#        242374
#        254542
#        268999
#
# Disc length: 3772 seconds
#
# Revision: 0
# Processed by: cddbd v1.5.2PL0 Copyright (c) Steve Scherf et al.
# Submitted via: ExactAudioCopy v1.0b3
#
DISCID=4a0eba16
DTITLE=Ray Charles - The Complete Swing Time and Down Beat Recordings 
DTITLE=1949-1952 [CD2]
DYEAR=1996
DGENRE=Blues
TTITLE0=Someday
TTITLE1=I'll Do Anything But Work
TTITLE2=I Wonder Who's Kissing Her Now
TTITLE3=All To Myself
TTITLE4=Lonely Boy
TTITLE5=Baby Let Me Hold Your Hand
TTITLE6=I'm Glad For Your Sake
TTITLE7=Baby Won't You Please Come Home
TTITLE8=Kissa Me Baby
TTITLE9=Hey Now
TTITLE10=The Snow Is Falling
TTITLE11=Misery In My Heart
TTITLE12=Let Me Hear You Call My Name
TTITLE13=Why Did You Go
TTITLE14=I'm Wondering And Wonderin'
TTITLE15=Walkin' And Talkin'
TTITLE16=Guitar Blues
TTITLE17=Back Home
TTITLE18=Sweet As Can Be (take 2)
TTITLE19=I'll Do Anything But Work (take 2)
TTITLE20=Someday (take 2)
TTITLE21=Late In The Evening Blues
EXTD=
EXTT0=
EXTT1=
EXTT2=
EXTT3=
EXTT4=
EXTT5=
EXTT6=
EXTT7=
EXTT8=
EXTT9=
EXTT10=
EXTT11=
EXTT12=
EXTT13=
EXTT14=
EXTT15=
EXTT16=
EXTT17=
EXTT18=
EXTT19=
EXTT20=
EXTT21=
PLAYORDER=
